<svg id="Capa_1" data-name="Capa 1" xmlns="http://www.w3.org/2000/svg" viewBox="0 0 400.82 119.76"><title>awesome-logo</title><g id="Group-2"><path id="Awesome" d="M113.74,57.13a17.7,17.7,0,0,1-3.68-.34,5,5,0,0,1-2.74-1.64,5.91,5.91,0,0,1-1.16-4A32.26,32.26,0,0,1,108.45,41a78.61,78.61,0,0,1,6-12.84A14.23,14.23,0,0,0,110,29a3.58,3.58,0,0,0-2.15,2.09q.23,0,.48.57a2.86,2.86,0,0,1,.25,1.19,1.84,1.84,0,0,1-.91,1.61,4,4,0,0,1-2.26.59,3.71,3.71,0,0,1-2.55-.85,3.07,3.07,0,0,1-1-2.43,5,5,0,0,1,1.5-3.51,10.31,10.31,0,0,1,4.16-2.52,17.67,17.67,0,0,1,5.88-.93q1.19,0,2.94.17a57,57,0,0,1,9.82-12q5.18-4.67,9.87-4.67a10.9,10.9,0,0,1,4.47.79l-8.88,41.64h-8.15l4.36-20.54A23.25,23.25,0,0,0,124,28.73a22.69,22.69,0,0,0-3.73-.62A96.53,96.53,0,0,0,115,42.34,45.1,45.1,0,0,0,112.95,54,5.15,5.15,0,0,0,113.74,57.13Zm17.94-44.87a16.53,16.53,0,0,0-5.06,4.84,55.89,55.89,0,0,0-5.12,8.57,35.5,35.5,0,0,1,6.9,2ZM144.8,51a5.88,5.88,0,0,1-4.38-1.7,7,7,0,0,1-1.67-5.09,19.62,19.62,0,0,1,.45-3.68L143,22.39h8.15l-4.07,19.24A5.81,5.81,0,0,0,147,43q0,2.49,1.7,2.49a3.45,3.45,0,0,0,2.72-1.33,9.85,9.85,0,0,0,1.81-3.65L157,22.39h8.15L161.1,41.63a11.88,11.88,0,0,0-.28,2,1.68,1.68,0,0,0,1.92,1.87q2.6,0,4.84-3.28a28.16,28.16,0,0,0,3.59-7.81,27.83,27.83,0,0,0,1.36-7.81q-.11.28-.74.42a5,5,0,0,1-1.08.14,1.67,1.67,0,0,1-1.5-.91,3.81,3.81,0,0,1-.54-2,2.93,2.93,0,0,1,.88-2.21,3.65,3.65,0,0,1,2.63-.85,3,3,0,0,1,2.72,1.39,6.68,6.68,0,0,1,.85,3.54A37.71,37.71,0,0,1,174,37.08a25.92,25.92,0,0,1-5.38,9.87,11.55,11.55,0,0,1-9,4.07,7.91,7.91,0,0,1-4.53-1.19,5.48,5.48,0,0,1-2.26-3.56Q149.67,51,144.8,51Zm39.89,0a9.14,9.14,0,0,1-6.51-2.18q-2.32-2.18-2.32-6.82a28,28,0,0,1,1.53-8.6,20,20,0,0,1,5-8.12,11.93,11.93,0,0,1,8.77-3.42q6.22,0,6.22,5.43a10.14,10.14,0,0,1-1.81,5.83,13.36,13.36,0,0,1-4.81,4.27,15.53,15.53,0,0,1-6.39,1.84q-.11,1.7-.11,2.26,0,2.77,1,3.76a4.19,4.19,0,0,0,3.11,1,9.4,9.4,0,0,0,5.23-1.41,25.37,25.37,0,0,0,4.78-4.3h1.92Q194,51,184.69,51Zm.11-14.48a7.46,7.46,0,0,0,4-1.47,10.36,10.36,0,0,0,3.06-3.45A9,9,0,0,0,193,27.2q0-2.32-1.41-2.32-2,0-4,3.56A27.15,27.15,0,0,0,184.8,36.54Zm20,14.48a9.25,9.25,0,0,1-4.58-1,6.87,6.87,0,0,1-2.77-2.72,7.2,7.2,0,0,1-.91-3.48,6,6,0,0,1,.88-3.25,5.38,5.38,0,0,1,2.12-2,72.22,72.22,0,0,0,3.85-8q1.64-4,3.11-8.74l8.37-1.13q.28,7.24,1,15.67.28,3.39.28,4.92a8.53,8.53,0,0,1-.23,2.15,23.22,23.22,0,0,0,4.07-2.83h2.38a33.07,33.07,0,0,1-8.66,7.07,9.75,9.75,0,0,1-4,2.57A14.9,14.9,0,0,1,204.78,51ZM203,46.55a4.63,4.63,0,0,0,4.92-5.26,46,46,0,0,0-.34-4.75q-.57-6.45-.74-8.66a65.47,65.47,0,0,1-4.58,10.69,2.14,2.14,0,0,1,1.3,2,2.92,2.92,0,0,1-.71,1.92,2.22,2.22,0,0,1-1.78.85,1.5,1.5,0,0,1-1.53-.74,4.56,4.56,0,0,0,.82,3A3.28,3.28,0,0,0,203,46.55Zm25.23,4.36a9.64,9.64,0,0,1-6.62-2.15q-2.43-2.15-2.43-6.79a27,27,0,0,1,1.58-8.54,20.2,20.2,0,0,1,5.09-8.12,12.13,12.13,0,0,1,8.83-3.42q7.24,0,7.24,9.05V31a2.28,2.28,0,0,0,.62.06,11.64,11.64,0,0,0,4.3-1,21.5,21.5,0,0,0,4.41-2.4l.51,1.53a13.54,13.54,0,0,1-4.27,3,22.13,22.13,0,0,1-5.74,1.73,25.62,25.62,0,0,1-2.32,9,15.28,15.28,0,0,1-4.81,5.94A10.8,10.8,0,0,1,228.2,50.91Zm2.26-5.09a3.75,3.75,0,0,0,2.72-1.56A13.94,13.94,0,0,0,235.56,40,27.38,27.38,0,0,0,237,34q-1.53-.34-1.53-2.38a3,3,0,0,1,1.75-3.06,5.82,5.82,0,0,0-.57-2.57,1.73,1.73,0,0,0-1.58-.71q-1.87,0-3.62,2.72a24,24,0,0,0-2.83,6.51,24.89,24.89,0,0,0-1.08,6.68,7.26,7.26,0,0,0,.62,3.65A2.52,2.52,0,0,0,230.46,45.82ZM279.18,51q-3.45,0-5.06-1.84a6.66,6.66,0,0,1-1.61-4.55,14.65,14.65,0,0,1,.28-2.69q.28-1.5.59-2.91t.42-1.81q.45-2,.85-3.9a16.19,16.19,0,0,0,.4-3.11q0-2.89-2-2.89a3.27,3.27,0,0,0-2.6,1.44,11.11,11.11,0,0,0-1.81,3.76l-3.85,18.16H256.6l4.13-19.52a5.81,5.81,0,0,0,.17-1.41q0-2.49-1.7-2.49a3.44,3.44,0,0,0-2.74,1.44,10.76,10.76,0,0,0-1.84,3.82l-3.85,18.16h-8.15l6-28.29h8.15l-.62,2.94a9,9,0,0,1,6.9-3.23q5,0,5.83,4.87,3.11-4.81,7.86-4.81a6.45,6.45,0,0,1,4.58,1.58,6.28,6.28,0,0,1,1.7,4.81,19,19,0,0,1-.4,3.65q-.4,2-1.13,4.89-.45,1.75-.82,3.42a13,13,0,0,0-.37,2.63,2.7,2.7,0,0,0,.51,1.75,2.15,2.15,0,0,0,1.75.62,3.36,3.36,0,0,0,2.72-1.22,14.27,14.27,0,0,0,2-3.76h2.38q-2.09,6.22-4.84,8.35A9.19,9.19,0,0,1,279.18,51Zm16.13,0a9.05,9.05,0,0,1-6.45-2.18q-2.32-2.18-2.32-6.82a28,28,0,0,1,1.53-8.6,20,20,0,0,1,5-8.12,11.93,11.93,0,0,1,8.77-3.42q6.22,0,6.22,5.43a10.14,10.14,0,0,1-1.81,5.83,13.36,13.36,0,0,1-4.81,4.27A15.53,15.53,0,0,1,295,39.25q-.11,1.24-.11,1.7,0,4.7,3.51,4.7a8,8,0,0,0,3.39-.85,13.7,13.7,0,0,0,3.28-2.15Q303.57,51,295.3,51Zm.11-14.48a7.16,7.16,0,0,0,4-1.41,10.28,10.28,0,0,0,3.06-3.48,9.13,9.13,0,0,0,1.16-4.44q0-2.32-1.41-2.32-2,0-3.93,3.59A30,30,0,0,0,295.42,36.54Z" style="fill:#a2deaf"/><path id="profile-cards" d="M122.68,68.39h8.15l-.91,4.24a9.84,9.84,0,0,1,6.62-2.43,6.41,6.41,0,0,1,5,2.09q1.87,2.09,1.87,6.85a32.73,32.73,0,0,1-1.3,9,18,18,0,0,1-4.41,7.75,10.93,10.93,0,0,1-8.2,3.2q-3.62,0-4.81-2l-2.94,13.81-8.54,2Zm5.09,25.8a5.32,5.32,0,0,0,4.5-2.55,17.31,17.31,0,0,0,2.6-6.08,29.27,29.27,0,0,0,.82-6.59q0-4.7-2.83-4.7a3.59,3.59,0,0,0-2.07.74,6.68,6.68,0,0,0-1.84,2l-3.34,15.84A2,2,0,0,0,127.77,94.19Zm20.93-23.71h8.15L156.12,74a22.68,22.68,0,0,1,3.48-2.6,6.58,6.58,0,0,1,3.37-.91,3.54,3.54,0,0,1,2.86,1.24,4.51,4.51,0,0,1,1,3,4.28,4.28,0,0,1-1.08,2.89,3.75,3.75,0,0,1-3,1.24,1.94,1.94,0,0,1-1.67-.59,4.52,4.52,0,0,1-.65-1.73,5.19,5.19,0,0,0-.34-1.08.63.63,0,0,0-.62-.34,3.91,3.91,0,0,0-2,.48,13.81,13.81,0,0,0-2.12,1.67l-4.53,21.5h-8.15ZM174.39,99a9.64,9.64,0,0,1-6.62-2.15q-2.43-2.15-2.43-6.79a27,27,0,0,1,1.58-8.54A20.2,20.2,0,0,1,172,73.4,12.13,12.13,0,0,1,180.84,70q7.24,0,7.24,9.05v.06a2.28,2.28,0,0,0,.62.06,11.64,11.64,0,0,0,4.3-1,21.5,21.5,0,0,0,4.41-2.4l.51,1.53a13.54,13.54,0,0,1-4.27,3A22.13,22.13,0,0,1,187.92,82a25.62,25.62,0,0,1-2.32,9,15.28,15.28,0,0,1-4.81,5.94A10.8,10.8,0,0,1,174.39,99Zm2.26-5.09a3.75,3.75,0,0,0,2.72-1.56,13.94,13.94,0,0,0,2.38-4.24,27.38,27.38,0,0,0,1.47-6q-1.53-.34-1.53-2.38a3,3,0,0,1,1.75-3.06,5.82,5.82,0,0,0-.57-2.57,1.73,1.73,0,0,0-1.58-.71q-1.87,0-3.62,2.72a24,24,0,0,0-2.83,6.51,24.89,24.89,0,0,0-1.08,6.68,7.26,7.26,0,0,0,.62,3.65A2.52,2.52,0,0,0,176.66,93.91Zm9.62,19a7.36,7.36,0,0,1-5.06-1.73,5.85,5.85,0,0,1-2-4.61,5.66,5.66,0,0,1,1.36-3.9,9.92,9.92,0,0,1,3.34-2.43A49.91,49.91,0,0,1,189,98.32l6.28-29.76q1.53-7,5.09-9.59a13.56,13.56,0,0,1,8.15-2.57,16.49,16.49,0,0,1,7.19,1.41,5.15,5.15,0,0,1,2.94,5.09,4.37,4.37,0,0,1-1.27,3.48,4.71,4.71,0,0,1-3.2,1.1,4,4,0,0,1-2.43-.71,2.72,2.72,0,0,1-1-2.35,3.52,3.52,0,0,1,.54-1.92,1.6,1.6,0,0,1,1.39-.85.94.94,0,0,1,.45.06,2.06,2.06,0,0,0-.88-1.7,3.88,3.88,0,0,0-2.23-.57,4.92,4.92,0,0,0-4,1.81,9.82,9.82,0,0,0-2,4.58l-1,4.64h4.53l-.45,2.26h-4.53l-6.45,30.55q-1.13,5.32-3.9,7.47A9.67,9.67,0,0,1,186.27,112.92Zm25.4-13.81a5.88,5.88,0,0,1-4.38-1.7,7,7,0,0,1-1.67-5.09,19.62,19.62,0,0,1,.45-3.68l3.85-18.16h8.15L214,89.72a7,7,0,0,0-.23,1.81,2.08,2.08,0,0,0,.54,1.61,2.65,2.65,0,0,0,1.78.48,4.31,4.31,0,0,0,3.06-1.39,7.92,7.92,0,0,0,2-3.59h2.38q-2.09,6.11-5.38,8.29A11.72,11.72,0,0,1,211.68,99.12Zm-27,8.77a2.59,2.59,0,0,0,1.9-1.08,7.26,7.26,0,0,0,1.39-3.34l.68-3.28a13.68,13.68,0,0,0-4.58,2.29,4,4,0,0,0-1.7,3.14,1.92,1.92,0,0,0,.79,1.75A2.83,2.83,0,0,0,184.69,107.89Zm42.1-8.77a5.88,5.88,0,0,1-4.38-1.7,7,7,0,0,1-1.67-5.09,19.62,19.62,0,0,1,.45-3.68l6.05-28.35,8.37-1.13-6.51,30.55a7,7,0,0,0-.23,1.81,2.08,2.08,0,0,0,.54,1.61,2.65,2.65,0,0,0,1.78.48,4.31,4.31,0,0,0,3.06-1.39,7.92,7.92,0,0,0,2-3.59h2.38q-2.09,6.11-5.38,8.29A11.72,11.72,0,0,1,226.79,99.12Zm17.48,0a9.05,9.05,0,0,1-6.45-2.18q-2.32-2.18-2.32-6.82a28,28,0,0,1,1.53-8.6,20,20,0,0,1,5-8.12A11.93,11.93,0,0,1,250.78,70Q257,70,257,75.41a10.14,10.14,0,0,1-1.81,5.83,13.36,13.36,0,0,1-4.81,4.27A15.53,15.53,0,0,1,244,87.35q-.11,1.24-.11,1.7,0,4.7,3.51,4.7a8,8,0,0,0,3.39-.85,13.7,13.7,0,0,0,3.28-2.15Q252.53,99.12,244.27,99.12Zm.11-14.48a7.16,7.16,0,0,0,4-1.41,10.28,10.28,0,0,0,3.06-3.48,9.13,9.13,0,0,0,1.16-4.44q0-2.32-1.41-2.32-2,0-3.93,3.59A30,30,0,0,0,244.38,84.63Zm14.71-2.89h11.32l-1,4.47H258.07ZM281.5,99.12A9.14,9.14,0,0,1,275,96.94q-2.32-2.18-2.32-6.82a27.55,27.55,0,0,1,1.56-8.6,20.38,20.38,0,0,1,5-8.12A11.77,11.77,0,0,1,287.89,70q3.39,0,4.84,1.47a5.11,5.11,0,0,1,1.44,3.73,4.83,4.83,0,0,1-.85,3.06,2.63,2.63,0,0,1-2.15,1.08,3.58,3.58,0,0,1-2-.68,9.91,9.91,0,0,0,.68-3.34,3.14,3.14,0,0,0-.4-1.7,1.32,1.32,0,0,0-1.19-.62q-1.7,0-3.39,2.77a25.83,25.83,0,0,0-2.77,6.73A27.51,27.51,0,0,0,281,89.61q0,2.77,1,3.76a4.19,4.19,0,0,0,3.11,1,9.4,9.4,0,0,0,5.23-1.41,25.37,25.37,0,0,0,4.78-4.3h1.92Q290.78,99.12,281.5,99.12Zm20.43,0a7.2,7.2,0,0,1-5.38-2.21Q294.4,94.7,294.4,90a25.84,25.84,0,0,1,1.67-8.8,20.26,20.26,0,0,1,5-7.81,11,11,0,0,1,7.89-3.2,6.06,6.06,0,0,1,3.45.79,2.44,2.44,0,0,1,1.13,2.09v.4l.62-3h8.15l-4.07,19.24a7,7,0,0,0-.23,1.81Q318,94,320.31,94a3.42,3.42,0,0,0,2.74-1.47,11.08,11.08,0,0,0,1.84-3.85h2.38q-2.09,6.11-5.18,8.29a10.68,10.68,0,0,1-6.2,2.18,5.41,5.41,0,0,1-3.82-1.33,6,6,0,0,1-1.73-3.88,15.8,15.8,0,0,1-3.65,3.76A8,8,0,0,1,301.92,99.12Zm3.68-5.49a4.08,4.08,0,0,0,2.8-1.33,7,7,0,0,0,1.9-3.65L313,75.86a2.3,2.3,0,0,0-.57-1.44,2.11,2.11,0,0,0-1.75-.71q-2.26,0-4.07,2.63a20.83,20.83,0,0,0-2.83,6.34,25.06,25.06,0,0,0-1,6.54q0,2.83.82,3.62A2.78,2.78,0,0,0,305.6,93.63Zm23.14-23.14h8.15L336.16,74a22.67,22.67,0,0,1,3.48-2.6,6.58,6.58,0,0,1,3.37-.91,3.54,3.54,0,0,1,2.86,1.24,4.51,4.51,0,0,1,1,3,4.28,4.28,0,0,1-1.08,2.89,3.75,3.75,0,0,1-3,1.24,1.94,1.94,0,0,1-1.67-.59,4.52,4.52,0,0,1-.65-1.73,5.19,5.19,0,0,0-.34-1.08.63.63,0,0,0-.62-.34,3.91,3.91,0,0,0-2,.48,13.81,13.81,0,0,0-2.12,1.67l-4.53,21.5h-8.15ZM353,99.12a7.2,7.2,0,0,1-5.38-2.21q-2.15-2.21-2.15-6.9a25.84,25.84,0,0,1,1.67-8.8,20.26,20.26,0,0,1,5-7.81A11,11,0,0,1,360,70.2a6.06,6.06,0,0,1,3.45.79,2.44,2.44,0,0,1,1.13,2.09v.23l2.77-13,8.37-1.13L369.2,89.72a7,7,0,0,0-.23,1.81,2.08,2.08,0,0,0,.54,1.61,2.65,2.65,0,0,0,1.78.48A3.51,3.51,0,0,0,374,92.27a9.89,9.89,0,0,0,1.84-3.62h2.38q-3.45,10.13-11.37,10.13a5.56,5.56,0,0,1-3.76-1.24,5.63,5.63,0,0,1-1.78-3.62,13.67,13.67,0,0,1-3.54,3.73A8.12,8.12,0,0,1,353,99.12Zm3.68-5.49a4.16,4.16,0,0,0,2.74-1.24,6.43,6.43,0,0,0,1.9-3.45v-.28l2.77-13a2.27,2.27,0,0,0-2.32-2q-2.26,0-4.07,2.63a20.83,20.83,0,0,0-2.83,6.34,25.06,25.06,0,0,0-1,6.54q0,2.83.82,3.62A2.78,2.78,0,0,0,356.64,93.63Zm25.69,5.49a9.25,9.25,0,0,1-4.58-1A6.87,6.87,0,0,1,375,95.35a7.2,7.2,0,0,1-.91-3.48,6,6,0,0,1,.88-3.25,5.38,5.38,0,0,1,2.12-2,72.21,72.21,0,0,0,3.85-8q1.64-4,3.11-8.74l8.37-1.13q.28,7.24,1,15.67.28,3.39.28,4.92A8.81,8.81,0,0,1,391.89,95a9.85,9.85,0,0,1-4.33,3.17A14.85,14.85,0,0,1,382.33,99.12Zm-1.81-4.47a4.63,4.63,0,0,0,4.92-5.26,46,46,0,0,0-.34-4.75q-.57-6.45-.74-8.66a65.47,65.47,0,0,1-4.58,10.69,2.14,2.14,0,0,1,1.3,2,2.92,2.92,0,0,1-.71,1.92,2.22,2.22,0,0,1-1.78.85,1.5,1.5,0,0,1-1.53-.74,4.56,4.56,0,0,0,.82,3A3.28,3.28,0,0,0,380.51,94.65Z" style="fill:#a2deaf"/><path id="Awesome-2" data-name="Awesome" d="M112.32,55.72a17.7,17.7,0,0,1-3.68-.34,5,5,0,0,1-2.74-1.64,5.91,5.91,0,0,1-1.16-4A32.26,32.26,0,0,1,107,39.54a78.61,78.61,0,0,1,6-12.84,14.23,14.23,0,0,0-4.47.85,3.58,3.58,0,0,0-2.15,2.09q.23,0,.48.57a2.86,2.86,0,0,1,.25,1.19,1.84,1.84,0,0,1-.91,1.61,4,4,0,0,1-2.26.59,3.71,3.71,0,0,1-2.55-.85,3.07,3.07,0,0,1-1-2.43,5,5,0,0,1,1.5-3.51,10.31,10.31,0,0,1,4.16-2.52,17.67,17.67,0,0,1,5.88-.93q1.19,0,2.94.17a57,57,0,0,1,9.82-12q5.18-4.67,9.87-4.67a10.9,10.9,0,0,1,4.47.79l-8.88,41.64h-8.15l4.36-20.54a23.25,23.25,0,0,0-3.85-1.41,22.69,22.69,0,0,0-3.73-.62,96.53,96.53,0,0,0-5.29,14.23,45.1,45.1,0,0,0-2.07,11.63A5.15,5.15,0,0,0,112.32,55.72Zm17.94-44.87a16.53,16.53,0,0,0-5.06,4.84,55.89,55.89,0,0,0-5.12,8.57,35.5,35.5,0,0,1,6.9,2Zm13.13,38.76a5.88,5.88,0,0,1-4.38-1.7,7,7,0,0,1-1.67-5.09,19.62,19.62,0,0,1,.45-3.68L141.63,21h8.15l-4.07,19.24a5.81,5.81,0,0,0-.17,1.41q0,2.49,1.7,2.49a3.45,3.45,0,0,0,2.72-1.33,9.85,9.85,0,0,0,1.81-3.65L155.61,21h8.15l-4.07,19.24a11.88,11.88,0,0,0-.28,2,1.68,1.68,0,0,0,1.92,1.87q2.6,0,4.84-3.28A28.16,28.16,0,0,0,169.75,33a27.83,27.83,0,0,0,1.36-7.81q-.11.28-.74.42a5,5,0,0,1-1.08.14,1.67,1.67,0,0,1-1.5-.91,3.81,3.81,0,0,1-.54-2,2.93,2.93,0,0,1,.88-2.21,3.65,3.65,0,0,1,2.63-.85,3,3,0,0,1,2.72,1.39,6.68,6.68,0,0,1,.85,3.54,37.71,37.71,0,0,1-1.75,10.89,25.92,25.92,0,0,1-5.38,9.87,11.55,11.55,0,0,1-9,4.07,7.91,7.91,0,0,1-4.53-1.19,5.48,5.48,0,0,1-2.26-3.56Q148.25,49.61,143.39,49.61Zm39.89,0a9.14,9.14,0,0,1-6.51-2.18q-2.32-2.18-2.32-6.82A28,28,0,0,1,176,32a20,20,0,0,1,5-8.12,11.93,11.93,0,0,1,8.77-3.42q6.22,0,6.22,5.43a10.14,10.14,0,0,1-1.81,5.83A13.36,13.36,0,0,1,189.33,36a15.53,15.53,0,0,1-6.39,1.84q-.11,1.7-.11,2.26,0,2.77,1,3.76a4.19,4.19,0,0,0,3.11,1,9.4,9.4,0,0,0,5.23-1.41,25.37,25.37,0,0,0,4.78-4.3h1.92Q192.55,49.61,183.28,49.61Zm.11-14.48a7.46,7.46,0,0,0,4-1.47,10.36,10.36,0,0,0,3.06-3.45,9,9,0,0,0,1.16-4.41q0-2.32-1.41-2.32-2,0-4,3.56A27.15,27.15,0,0,0,183.39,35.12Zm20,14.48a9.25,9.25,0,0,1-4.58-1A6.87,6.87,0,0,1,196,45.85a7.2,7.2,0,0,1-.91-3.48,6,6,0,0,1,.88-3.25,5.38,5.38,0,0,1,2.12-2,72.22,72.22,0,0,0,3.85-8q1.64-4,3.11-8.74l8.37-1.13q.28,7.24,1,15.67.28,3.39.28,4.92a8.53,8.53,0,0,1-.23,2.15,23.22,23.22,0,0,0,4.07-2.83h2.38a33.07,33.07,0,0,1-8.66,7.07,9.75,9.75,0,0,1-4,2.57A14.9,14.9,0,0,1,203.36,49.61Zm-1.81-4.47a4.63,4.63,0,0,0,4.92-5.26,46,46,0,0,0-.34-4.75q-.57-6.45-.74-8.66a65.47,65.47,0,0,1-4.58,10.69,2.14,2.14,0,0,1,1.3,2,2.92,2.92,0,0,1-.71,1.92,2.22,2.22,0,0,1-1.78.85,1.5,1.5,0,0,1-1.53-.74,4.56,4.56,0,0,0,.82,3A3.28,3.28,0,0,0,201.55,45.14Zm25.23,4.36a9.64,9.64,0,0,1-6.62-2.15q-2.43-2.15-2.43-6.79A27,27,0,0,1,219.32,32a20.2,20.2,0,0,1,5.09-8.12,12.13,12.13,0,0,1,8.83-3.42q7.24,0,7.24,9.05v.06a2.28,2.28,0,0,0,.62.06,11.64,11.64,0,0,0,4.3-1,21.5,21.5,0,0,0,4.41-2.4l.51,1.53a13.54,13.54,0,0,1-4.27,3,22.13,22.13,0,0,1-5.74,1.73,25.62,25.62,0,0,1-2.32,9,15.28,15.28,0,0,1-4.81,5.94A10.8,10.8,0,0,1,226.79,49.5ZM229,44.4a3.75,3.75,0,0,0,2.72-1.56,13.94,13.94,0,0,0,2.38-4.24,27.38,27.38,0,0,0,1.47-6q-1.53-.34-1.53-2.38a3,3,0,0,1,1.75-3.06,5.82,5.82,0,0,0-.57-2.57,1.73,1.73,0,0,0-1.58-.71q-1.87,0-3.62,2.72a24,24,0,0,0-2.83,6.51,24.88,24.88,0,0,0-1.08,6.68,7.26,7.26,0,0,0,.62,3.65A2.52,2.52,0,0,0,229,44.4Zm48.72,5.21q-3.45,0-5.06-1.84a6.66,6.66,0,0,1-1.61-4.55,14.65,14.65,0,0,1,.28-2.69q.28-1.5.59-2.91t.42-1.81q.45-2,.85-3.9a16.19,16.19,0,0,0,.4-3.11q0-2.89-2-2.89a3.27,3.27,0,0,0-2.6,1.44,11.1,11.1,0,0,0-1.81,3.76l-3.85,18.16h-8.15l4.13-19.52a5.81,5.81,0,0,0,.17-1.41q0-2.49-1.7-2.49A3.44,3.44,0,0,0,255,27.29a10.76,10.76,0,0,0-1.84,3.82l-3.85,18.16h-8.15l6-28.29h8.15l-.62,2.94a9,9,0,0,1,6.9-3.23q5,0,5.83,4.87,3.11-4.81,7.86-4.81a6.45,6.45,0,0,1,4.58,1.58,6.28,6.28,0,0,1,1.7,4.81,19,19,0,0,1-.4,3.65q-.4,2-1.13,4.89-.45,1.75-.82,3.42a13,13,0,0,0-.37,2.63,2.7,2.7,0,0,0,.51,1.75,2.15,2.15,0,0,0,1.75.62,3.36,3.36,0,0,0,2.72-1.22,14.27,14.27,0,0,0,2-3.76h2.38q-2.09,6.22-4.84,8.35A9.19,9.19,0,0,1,277.76,49.61Zm16.13,0a9.05,9.05,0,0,1-6.45-2.18q-2.32-2.18-2.32-6.82a28,28,0,0,1,1.53-8.6,20,20,0,0,1,5-8.12,11.93,11.93,0,0,1,8.77-3.42q6.22,0,6.22,5.43a10.14,10.14,0,0,1-1.81,5.83A13.36,13.36,0,0,1,300,36a15.53,15.53,0,0,1-6.39,1.84q-.11,1.24-.11,1.7,0,4.7,3.51,4.7a8,8,0,0,0,3.39-.85,13.7,13.7,0,0,0,3.28-2.15Q302.15,49.61,293.89,49.61ZM294,35.12a7.16,7.16,0,0,0,4-1.41,10.28,10.28,0,0,0,3.06-3.48,9.13,9.13,0,0,0,1.16-4.44q0-2.32-1.41-2.32-2,0-3.93,3.59A30,30,0,0,0,294,35.12Z" style="fill:#114e4e"/><path id="profile-cards-2" data-name="profile-cards" d="M121.26,67h8.15l-.91,4.24a9.84,9.84,0,0,1,6.62-2.43,6.41,6.41,0,0,1,5,2.09Q142,73,142,77.73a32.73,32.73,0,0,1-1.3,9,18,18,0,0,1-4.41,7.75,10.93,10.93,0,0,1-8.2,3.2q-3.62,0-4.81-2l-2.94,13.81-8.54,2Zm5.09,25.8a5.32,5.32,0,0,0,4.5-2.55,17.31,17.31,0,0,0,2.6-6.08,29.27,29.27,0,0,0,.82-6.59q0-4.7-2.83-4.7a3.59,3.59,0,0,0-2.07.74,6.69,6.69,0,0,0-1.84,2l-3.34,15.84A2,2,0,0,0,126.36,92.78Zm20.93-23.71h8.15l-.74,3.51a22.68,22.68,0,0,1,3.48-2.6,6.58,6.58,0,0,1,3.37-.91,3.54,3.54,0,0,1,2.86,1.24,4.51,4.51,0,0,1,1,3,4.28,4.28,0,0,1-1.08,2.89,3.75,3.75,0,0,1-3,1.24,1.94,1.94,0,0,1-1.67-.59,4.52,4.52,0,0,1-.65-1.73,5.19,5.19,0,0,0-.34-1.08.63.63,0,0,0-.62-.34,3.91,3.91,0,0,0-2,.48A13.81,13.81,0,0,0,154,75.86l-4.53,21.5h-8.15ZM173,97.59a9.64,9.64,0,0,1-6.62-2.15q-2.43-2.15-2.43-6.79a27,27,0,0,1,1.58-8.54A20.2,20.2,0,0,1,170.6,72a12.13,12.13,0,0,1,8.83-3.42q7.24,0,7.24,9.05v.06a2.28,2.28,0,0,0,.62.06,11.64,11.64,0,0,0,4.3-1,21.5,21.5,0,0,0,4.41-2.4l.51,1.53a13.54,13.54,0,0,1-4.27,3,22.13,22.13,0,0,1-5.74,1.73,25.62,25.62,0,0,1-2.32,9,15.28,15.28,0,0,1-4.81,5.94A10.8,10.8,0,0,1,173,97.59Zm2.26-5.09A3.75,3.75,0,0,0,178,90.94a13.94,13.94,0,0,0,2.38-4.24,27.38,27.38,0,0,0,1.47-6q-1.53-.34-1.53-2.38A3,3,0,0,1,182,75.3a5.82,5.82,0,0,0-.57-2.57,1.73,1.73,0,0,0-1.58-.71q-1.87,0-3.62,2.72a24,24,0,0,0-2.83,6.51,24.88,24.88,0,0,0-1.08,6.68,7.26,7.26,0,0,0,.62,3.65A2.52,2.52,0,0,0,175.24,92.5Zm9.62,19a7.36,7.36,0,0,1-5.06-1.73,5.85,5.85,0,0,1-2-4.61,5.66,5.66,0,0,1,1.36-3.9,9.92,9.92,0,0,1,3.34-2.43,49.91,49.91,0,0,1,5.09-1.92l6.28-29.76q1.53-7,5.09-9.59A13.56,13.56,0,0,1,207.15,55a16.49,16.49,0,0,1,7.19,1.41,5.15,5.15,0,0,1,2.94,5.09A4.37,4.37,0,0,1,216,65a4.71,4.71,0,0,1-3.2,1.1,4,4,0,0,1-2.43-.71,2.72,2.72,0,0,1-1-2.35,3.52,3.52,0,0,1,.54-1.92,1.6,1.6,0,0,1,1.39-.85.94.94,0,0,1,.45.06,2.06,2.06,0,0,0-.88-1.7,3.88,3.88,0,0,0-2.23-.57,4.92,4.92,0,0,0-4,1.81,9.82,9.82,0,0,0-2,4.58l-1,4.64h4.53l-.45,2.26h-4.53l-6.45,30.55q-1.13,5.32-3.9,7.47A9.67,9.67,0,0,1,184.86,111.51Zm25.4-13.81a5.88,5.88,0,0,1-4.38-1.7,7,7,0,0,1-1.67-5.09,19.62,19.62,0,0,1,.45-3.68l3.85-18.16h8.15l-4.07,19.24a7,7,0,0,0-.23,1.81,2.08,2.08,0,0,0,.54,1.61,2.65,2.65,0,0,0,1.78.48,4.31,4.31,0,0,0,3.06-1.39,7.92,7.92,0,0,0,2-3.59h2.38q-2.09,6.11-5.38,8.29A11.72,11.72,0,0,1,210.26,97.7Zm-27,8.77a2.59,2.59,0,0,0,1.9-1.08,7.26,7.26,0,0,0,1.39-3.34l.68-3.28a13.68,13.68,0,0,0-4.58,2.29,4,4,0,0,0-1.7,3.14,1.92,1.92,0,0,0,.79,1.75A2.83,2.83,0,0,0,183.28,106.47Zm42.1-8.77A5.88,5.88,0,0,1,221,96a7,7,0,0,1-1.67-5.09,19.62,19.62,0,0,1,.45-3.68l6.05-28.35,8.37-1.13-6.51,30.55a7,7,0,0,0-.23,1.81,2.08,2.08,0,0,0,.54,1.61,2.65,2.65,0,0,0,1.78.48,4.31,4.31,0,0,0,3.06-1.39,7.92,7.92,0,0,0,2-3.59h2.38q-2.09,6.11-5.38,8.29A11.72,11.72,0,0,1,225.37,97.7Zm17.48,0a9.05,9.05,0,0,1-6.45-2.18q-2.32-2.18-2.32-6.82a28,28,0,0,1,1.53-8.6,20,20,0,0,1,5-8.12,11.93,11.93,0,0,1,8.77-3.42q6.22,0,6.22,5.43a10.14,10.14,0,0,1-1.81,5.83A13.36,13.36,0,0,1,249,84.09a15.53,15.53,0,0,1-6.39,1.84q-.11,1.24-.11,1.7,0,4.7,3.51,4.7a8,8,0,0,0,3.39-.85,13.7,13.7,0,0,0,3.28-2.15Q251.12,97.7,242.85,97.7ZM243,83.22a7.16,7.16,0,0,0,4-1.41,10.28,10.28,0,0,0,3.06-3.48,9.13,9.13,0,0,0,1.16-4.44q0-2.32-1.41-2.32-2,0-3.93,3.59A30,30,0,0,0,243,83.22Zm14.71-2.89H269l-1,4.47H256.66ZM280.08,97.7a9.14,9.14,0,0,1-6.51-2.18q-2.32-2.18-2.32-6.82a27.55,27.55,0,0,1,1.56-8.6,20.38,20.38,0,0,1,5-8.12,11.77,11.77,0,0,1,8.69-3.42q3.39,0,4.84,1.47a5.11,5.11,0,0,1,1.44,3.73,4.83,4.83,0,0,1-.85,3.06,2.63,2.63,0,0,1-2.15,1.08,3.58,3.58,0,0,1-2-.68,9.91,9.91,0,0,0,.68-3.34,3.14,3.14,0,0,0-.4-1.7,1.32,1.32,0,0,0-1.19-.62q-1.7,0-3.39,2.77a25.83,25.83,0,0,0-2.77,6.73,27.51,27.51,0,0,0-1.08,7.13q0,2.77,1,3.76a4.19,4.19,0,0,0,3.11,1,9.4,9.4,0,0,0,5.23-1.41,25.37,25.37,0,0,0,4.78-4.3h1.92Q289.36,97.7,280.08,97.7Zm20.43,0a7.2,7.2,0,0,1-5.38-2.21Q293,93.29,293,88.59a25.84,25.84,0,0,1,1.67-8.8,20.26,20.26,0,0,1,5-7.81,11,11,0,0,1,7.89-3.2,6.06,6.06,0,0,1,3.45.79,2.44,2.44,0,0,1,1.13,2.09v.4l.62-3h8.15l-4.07,19.24a7,7,0,0,0-.23,1.81q0,2.43,2.32,2.43a3.42,3.42,0,0,0,2.74-1.47,11.08,11.08,0,0,0,1.84-3.85h2.38q-2.09,6.11-5.18,8.29a10.68,10.68,0,0,1-6.2,2.18,5.41,5.41,0,0,1-3.82-1.33,6,6,0,0,1-1.73-3.88,15.8,15.8,0,0,1-3.65,3.76A8,8,0,0,1,300.51,97.7Zm3.68-5.49a4.08,4.08,0,0,0,2.8-1.33,7,7,0,0,0,1.9-3.65l2.72-12.79A2.3,2.3,0,0,0,311,73a2.11,2.11,0,0,0-1.75-.71q-2.26,0-4.07,2.63a20.83,20.83,0,0,0-2.83,6.34,25.06,25.06,0,0,0-1,6.54q0,2.83.82,3.62A2.78,2.78,0,0,0,304.19,92.21Zm23.14-23.14h8.15l-.74,3.51a22.68,22.68,0,0,1,3.48-2.6,6.58,6.58,0,0,1,3.37-.91,3.54,3.54,0,0,1,2.86,1.24,4.51,4.51,0,0,1,1,3,4.28,4.28,0,0,1-1.08,2.89,3.75,3.75,0,0,1-3,1.24,1.94,1.94,0,0,1-1.67-.59,4.52,4.52,0,0,1-.65-1.73,5.19,5.19,0,0,0-.34-1.08.63.63,0,0,0-.62-.34,3.91,3.91,0,0,0-2,.48A13.81,13.81,0,0,0,334,75.86l-4.53,21.5h-8.15ZM351.55,97.7a7.2,7.2,0,0,1-5.38-2.21Q344,93.29,344,88.59a25.84,25.84,0,0,1,1.67-8.8,20.26,20.26,0,0,1,5-7.81,11,11,0,0,1,7.89-3.2,6.06,6.06,0,0,1,3.45.79,2.44,2.44,0,0,1,1.13,2.09v.23l2.77-13,8.37-1.13-6.51,30.55a7,7,0,0,0-.23,1.81,2.08,2.08,0,0,0,.54,1.61,2.65,2.65,0,0,0,1.78.48,3.51,3.51,0,0,0,2.74-1.36,9.89,9.89,0,0,0,1.84-3.62h2.38q-3.45,10.13-11.37,10.13a5.56,5.56,0,0,1-3.76-1.24,5.63,5.63,0,0,1-1.78-3.62,13.67,13.67,0,0,1-3.54,3.73A8.12,8.12,0,0,1,351.55,97.7Zm3.68-5.49A4.16,4.16,0,0,0,358,91a6.43,6.43,0,0,0,1.9-3.45v-.28l2.77-13a2.27,2.27,0,0,0-2.32-2q-2.26,0-4.07,2.63a20.83,20.83,0,0,0-2.83,6.34,25.06,25.06,0,0,0-1,6.54q0,2.83.82,3.62A2.78,2.78,0,0,0,355.22,92.21Zm25.69,5.49a9.25,9.25,0,0,1-4.58-1,6.87,6.87,0,0,1-2.77-2.72,7.2,7.2,0,0,1-.91-3.48,6,6,0,0,1,.88-3.25,5.38,5.38,0,0,1,2.12-2,72.22,72.22,0,0,0,3.85-8q1.64-4,3.11-8.74L391,67.32q.28,7.24,1,15.67.28,3.39.28,4.92a8.81,8.81,0,0,1-1.75,5.66,9.85,9.85,0,0,1-4.33,3.17A14.85,14.85,0,0,1,380.91,97.7Zm-1.81-4.47A4.63,4.63,0,0,0,384,88a46,46,0,0,0-.34-4.75q-.57-6.45-.74-8.66a65.47,65.47,0,0,1-4.58,10.69,2.14,2.14,0,0,1,1.3,2,2.92,2.92,0,0,1-.71,1.92,2.22,2.22,0,0,1-1.78.85,1.5,1.5,0,0,1-1.53-.74,4.56,4.56,0,0,0,.82,3A3.28,3.28,0,0,0,379.1,93.23Z" style="fill:#114e4e"/></g><path id="Path" d="M93.09,93.48a9.06,9.06,0,0,1-7.55,10.42l-53.9,8.6A9.06,9.06,0,0,1,21.22,105L8.79,27.09a9.06,9.06,0,0,1,7.55-10.42l53.9-8.6a9.06,9.06,0,0,1,10.42,7.55Z" style="fill:#a2deaf"/><path id="Path-Copy" d="M91.6,92.66A9.06,9.06,0,0,1,84,103.08l-53.9,8.6a9.06,9.06,0,0,1-10.42-7.55L7.3,26.27a9.06,9.06,0,0,1,7.55-10.42l53.9-8.6A9.06,9.06,0,0,1,79.17,14.8Z" style="fill:#114e4e"/><path id="Path-2" data-name="Path" d="M29.19,105.69l53.9-8.6a2.92,2.92,0,0,0,2.52-3.47L73.18,15.76a2.92,2.92,0,0,0-3.47-2.52l-53.9,8.6a2.92,2.92,0,0,0-2.52,3.47l12.42,77.86a2.92,2.92,0,0,0,3.47,2.52Z" style="fill:#fff"/><path d="M70.89,55.61a2.41,2.41,0,0,0-1.73,1.22c-2.78-1.4-8.75-3.5-12.82,1.61,0,0-5.9-5.89-3.51-11.85a2.42,2.42,0,1,0-1.31-1.78,2.36,2.36,0,0,0,.26.74c-3.21,1.86-8.6,6.07-8.34,13.32,0,0-6.65-6.38-14.11-.35a2.42,2.42,0,1,0,.57,1.2c0-.08,0-.14-.06-.22,2.9-.24,7.91,1.56,11.34,14.83l.32,1.08c.18,1.13,4.9,1.31,10.53.41s10.06-2.56,9.88-3.68c0,0-1.12-9.3,7-13.63a2.42,2.42,0,1,0,2-2.91Z" style="fill:#e17334"/><path d="M27.29,28.47a4.69,4.69,0,1,1-5.37-3.88A4.69,4.69,0,0,1,27.29,28.47Z" style="fill:none;stroke:#a2deaf;stroke-miterlimit:10"/><path d="M22.2,30.12c0,.23,0,.63-.31.68s-.47-.31-.51-.54,0-.63.31-.68S22.16,29.89,22.2,30.12ZM25.36,29a2.43,2.43,0,0,1,0,1.08c-.28.92-1.44,1.08-2.26,1.22s-2.06.37-2.63-.42a2.4,2.4,0,0,1-.39-1,1.93,1.93,0,0,1,.25-1.33,1.75,1.75,0,0,1-.17-.53,1.12,1.12,0,0,1,.07-.6,1.75,1.75,0,0,1,1.27.2,4.29,4.29,0,0,1,1-.27,3.87,3.87,0,0,1,.91,0,1.73,1.73,0,0,1,1.13-.58,1.11,1.11,0,0,1,.25.55,1.73,1.73,0,0,1,0,.55A1.93,1.93,0,0,1,25.36,29Zm-.62.67a.85.85,0,0,0-1-.78,4.61,4.61,0,0,0-.61.17,3.58,3.58,0,0,1-1,.16,4.53,4.53,0,0,0-.63,0,.85.85,0,0,0-.66,1c.16,1,1.07,1,1.85.85l.53-.09C24,31,24.9,30.68,24.74,29.7Zm-1-.46c-.29,0-.34.44-.31.68s.22.59.51.54.34-.44.31-.68S24,29.2,23.73,29.24Z" style="fill:#114e4e"/><path d="M70.54,21.47a4.69,4.69,0,1,1-5.37-3.88A4.69,4.69,0,0,1,70.54,21.47Z" style="fill:none;stroke:#a2deaf;stroke-miterlimit:10"/><path d="M67.84,20.79s0,.09,0,.14a3.14,3.14,0,0,1-4.34,3.38l.26,0a2.21,2.21,0,0,0,1.28-.68A1.1,1.1,0,0,1,63.93,23l.21,0a1.17,1.17,0,0,0,.28-.08,1.1,1.1,0,0,1-1-.93h0a1.11,1.11,0,0,0,.51.06,1.1,1.1,0,0,1-.57-1.4,3.13,3.13,0,0,0,2.43.78,1.24,1.24,0,0,1-.07-.24,1.1,1.1,0,0,1,1.76-1,2.17,2.17,0,0,0,.65-.37,1.1,1.1,0,0,1-.38.68,2.21,2.21,0,0,0,.6-.27,2.37,2.37,0,0,1-.45.65Z" style="fill:#114e4e"/><path d="M35.53,95.36s0,.09,0,.14a3.14,3.14,0,0,1-4.34,3.38l.26,0a2.21,2.21,0,0,0,1.28-.68,1.1,1.1,0,0,1-1.14-.59l.21,0a1.17,1.17,0,0,0,.28-.08,1.1,1.1,0,0,1-1-.93h0a1.11,1.11,0,0,0,.51.06A1.1,1.1,0,0,1,31,95.2a3.13,3.13,0,0,0,2.43.78,1.24,1.24,0,0,1-.07-.24,1.1,1.1,0,0,1,1.76-1,2.17,2.17,0,0,0,.65-.37,1.1,1.1,0,0,1-.38.68,2.21,2.21,0,0,0,.6-.27,2.37,2.37,0,0,1-.45.65Z" style="fill:#114e4e"/><path d="M38.23,96a4.69,4.69,0,1,1-5.37-3.88A4.69,4.69,0,0,1,38.23,96Z" style="fill:none;stroke:#a2deaf;stroke-miterlimit:10"/><path d="M81.48,89a4.69,4.69,0,1,1-5.37-3.88A4.69,4.69,0,0,1,81.48,89Z" style="fill:none;stroke:#a2deaf;stroke-miterlimit:10"/><path d="M76.38,90.69c0,.23,0,.63-.31.68s-.47-.31-.51-.54,0-.63.31-.68S76.34,90.46,76.38,90.69Zm3.16-1.09a2.43,2.43,0,0,1,0,1.08c-.28.92-1.44,1.08-2.26,1.22s-2.06.37-2.63-.42a2.4,2.4,0,0,1-.39-1,1.93,1.93,0,0,1,.25-1.33,1.75,1.75,0,0,1-.17-.53,1.12,1.12,0,0,1,.07-.6,1.75,1.75,0,0,1,1.27.2,4.29,4.29,0,0,1,1-.27,3.87,3.87,0,0,1,.91,0,1.73,1.73,0,0,1,1.13-.58,1.11,1.11,0,0,1,.25.55,1.73,1.73,0,0,1,0,.55,1.93,1.93,0,0,1,.64,1.19Zm-.62.67a.85.85,0,0,0-1-.78,4.61,4.61,0,0,0-.61.17,3.58,3.58,0,0,1-1,.16,4.53,4.53,0,0,0-.63,0,.85.85,0,0,0-.66,1c.16,1,1.07,1,1.85.85l.53-.09C78.22,91.54,79.08,91.24,78.92,90.27Zm-1-.46c-.29,0-.34.44-.31.68s.22.59.51.54.34-.44.31-.68S78.19,89.77,77.91,89.81Z" style="fill:#114e4e"/></svg>